<svg viewBox="0 0 13 16" fill="none" xmlns="http://www.w3.org/2000/svg">
   <path d="M7.14 1.07533L6.06667 2.4195V9.40916C4.73667 11.0894 3.08 12.5231 1.19 13.5985C2.45 12.2319 3.47667 10.6413 4.2 8.9163V1.97144L5.48334 0L7.14 1.07533Z" fill="currentColor"/>
   <path d="M9.61333 6.00394H0.396667L0 5.39907C0.606667 5.51108 1.23667 5.55589 1.86667 5.55589H6.74333L7.84 4.27893L9.61333 6.00394Z" fill="currentColor"/>
   <path d="M11.9915 11.0358L11.5393 10.4713L11.2181 10.0518L10.587 10.562L10.1521 10.9185L9.3901 11.5311C9.77675 11.8994 10.06 12.4125 10.1152 12.9923C10.1556 13.4161 10.0755 13.8063 9.92368 14.1808C10.728 13.7666 11.3443 13.1003 11.6881 12.28C11.8611 11.8809 11.9622 11.4662 11.9915 11.0358Z" fill="currentColor"/>
   <path d="M10.9667 7.46009L8.02665 11.1565C7.67665 11.6046 7.23332 11.963 6.71998 12.2319L1.21332 15.1442C3.00998 14.0241 4.64332 12.7023 6.11332 11.2014L7.58332 9.31952C7.95665 8.82666 8.25998 8.3338 8.49332 7.81854C8.53998 7.70653 8.58665 7.57211 8.58665 7.43769V6.63119C8.58665 6.49678 8.46998 6.40717 8.35332 6.40717H9.09998L10.9667 7.46009Z" fill="currentColor"/>
</svg>