<svg width="16" height="16" viewBox="0 0 16 16" fill="none" xmlns="http://www.w3.org/2000/svg">
   <circle cx="8" cy="8" r="7" stroke="currentColor" />
   <path d="M10.5 8C10.5 10.1046 10.1248 11.9621 9.55872 13.256C9.27502 13.9045 8.96302 14.3665 8.6673 14.6524C8.37638 14.9336 8.15238 15 8 15C7.84762 15 7.62362 14.9336 7.3327 14.6524C7.03698 14.3665 6.72498 13.9045 6.44128 13.256C5.87518 11.9621 5.5 10.1046 5.5 8C5.5 5.89543 5.87518 4.03791 6.44128 2.74396C6.72498 2.09551 7.03698 1.63353 7.3327 1.34763C7.62362 1.06638 7.84762 1 8 1C8.15238 1 8.37638 1.06638 8.6673 1.34763C8.96302 1.63353 9.27502 2.09551 9.55872 2.74396C10.1248 4.03791 10.5 5.89543 10.5 8Z" stroke="currentColor" />
   <path d="M0 8H16" stroke="currentColor" />
</svg>