<svg viewBox="0 0 293 695" fill="none" xmlns="http://www.w3.org/2000/svg">
   <path d="M85.6 561C86.7 563 139.6 527.4 140.6 529.2C141.5 530.8 80 566.3 80.9 567.9C81.8 569.5 135.3 533.7 136.6 535.8C137.5 537.3 83.2 569.6 84 570.9C85.2 573 140 536.6 140.9 538.1C141.7 539.5 79.8 574.4 81.1 576.7C81.8 577.8 139.7 540.2 140.9 542.2C142 544 80.5 579.9 81.2 581.2C82.4 583.3 138.4 545.4 139.6 547.5C140.8 549.5 80.6 584.2 81.3 585.5C82.1 586.8 138.5 550.5 139.3 552C140.3 553.7 81.2 587.8 82.5 590C83.4 591.5 139 555 140 556.8C141.2 558.8 82 592.4 83.2 594.5C84.1 596 138.6 560.7 139.4 562.1C140.2 563.5 89 593.2 89.9 594.9C90.5 595.9 136.6 565.5 137.7 567.3C138.4 568.5 91 597.3 91.6 598.3C92.6 599.9 137.2 569.5 138.3 571.3C139.2 572.8 84.5 604.9 85.6 606.8C86.4 608.3 136.2 576.1 136.9 577.2C137.9 578.9 84.7 609.8 85.4 611.2C86.2 612.5 137.4 578.7 138.5 580.6C139.3 582.1 88.8 611 89.8 612.8C90.4 613.8 136 584.6 136.7 585.7C137.3 586.7 90.5 614.8 91.6 616.7C92.5 618.3 133 591.2 133.7 592.4C134.3 593.5 86.9 621 88 622.8C88.8 624.2 129.6 597.4 130.2 598.4C131.2 600.1 88.4 625.7 89 626.6C89.5 627.5 124.6 604.4 125.4 605.6C126.3 607.2 85 631.8 85.8 633.2C86.5 634.5 128.4 607.4 128.9 608.3C129.8 609.9 89.5 633.5 90.3 634.8C91 636 122.4 614.6 123.1 615.9C123.9 617.3 86.5 640 87.1 641.1C87.6 641.9 126.2 617.1 126.9 618.1C127.7 619.4 86.6 645.1 87.2 646.2C88 647.6 126 622.4 126.6 623.5C127.6 625.2 85.3 649.7 86.2 651.3C86.9 652.5 124.7 627.2 125.5 628.6C126 629.5 85.7 654.9 86.4 656.1C87 657.1 122.4 633.6 123.1 634.9C123.7 635.9 87.4 658.3 88.1 659.4C88.8 660.5 126.2 635.6 126.9 637C127.6 638.2 83.1 665 84 666.5C84.6 667.5 125.9 640.5 126.7 641.9C127.5 643.3 82.4 670.7 83.1 672C84 673.6 121 648.2 121.8 649.6C122.3 650.5 82.2 675.7 82.8 676.6C83.5 677.8 124.1 651.2 124.8 652.4C125.8 654.2 80.2 680.7 80.9 681.9C81.7 683.3 126.5 654.3 127.1 655.2C127.8 656.3 83.1 683.9 83.8 685.2C84.3 686.1 122.4 661.1 123.2 662.5C124.1 664 84.5 688.3 85.1 689.4C85.6 690.2 123.3 665.4 124.1 666.9C124.9 668.3 90.7 689.2 91.4 690.6C91.9 691.5 123.3 670.6 124 671.8C124.6 672.8 91.3 693.5 92.1 694.8C92.7 695.8 120.2 677.7 120.5 678.4C120.9 679 97.4 695.3 98 696.2C98.3 696.8 122.4 681.3 122.8 681.9" stroke="currentColor" stroke-width="2" stroke-linecap="round" stroke-linejoin="round"/>
   <path d="M243.3 386.7C243.4 386.9 247.5 384 247.7 384.2" stroke="currentColor" stroke-width="2" stroke-linecap="round" stroke-linejoin="round"/>
   <path d="M176.5 406.2C177.4 407.8 249.7 360 251.4 362.9C253.3 366.1 170.5 411.1 171.9 413.7C172.8 415.2 247.6 366.6 249.1 369.2C250.1 371 172.1 414.8 173.6 417.4C174.6 419.1 247 371.6 248.5 374.2C249.9 376.6 177 417 178.4 419.5C179.5 421.3 249.9 375.2 251.2 377.5C252.3 379.4 179.4 420.7 180.4 422.5C181.8 424.9 252 378.9 253 380.6C254.3 382.9 178.8 425.4 179.8 427.1C180.6 428.5 241 388.6 242.4 391C243.2 392.3 182.1 428.6 183 430.1C184.3 432.3 242.3 393.6 243.3 395.3C244.1 396.7 180.9 433.1 182 435.1C183 436.8 246.8 396.1 247.5 397.3C249 399.8 181.2 437.4 182.5 439.7C183.3 441.1 243.8 401.8 244.9 403.7C246 405.6 182 441.7 183.2 443.7C184.4 445.8 242.7 407.4 243.5 408.9C244.7 410.9 184 446.4 184.8 447.9C185.9 449.8 247.5 409.1 248.7 411C249.4 412.3 192 445.4 193.2 447.4C194.2 449.1 244.4 414.9 245.7 417.1C246.4 418.4 194.1 449.6 194.8 450.8C196.1 453 251.2 415.4 252.4 417.5C253.4 419.2 199.4 451.2 200 452.3C200.9 453.8 249 421.5 250.1 423.4C251 424.9 197.5 455.1 198.7 457.2C199.7 459 246.2 428.3 246.9 429.4C248.1 431.4 194 462.5 194.8 463.9C195.4 464.9 243.5 433.5 244.5 435.2C245.3 436.6 190.6 469.1 191.5 470.7C192.5 472.4 246 437.6 246.7 438.8C247.6 440.4 193.8 471.7 194.7 473.4C195.7 475.1 242.7 443.8 243.5 445.2C244.6 447.1 191.8 477.7 192.8 479.5C193.9 481.4 243 448 244.1 449.9C245.1 451.6 193.5 481.7 194.6 483.6C195.6 485.3 249.8 449.7 250.7 451.2C251.9 453.3 190.2 489.1 191.1 490.7C192.3 492.8 246.6 456.3 247.6 458.1C248.7 459.9 185.4 496.9 186.4 498.6C187.4 500.3 251 459 252 460.7C252.8 462.1 190.4 498.2 191.5 500.1C192.5 501.9 249.8 464.3 250.8 465.9C251.7 467.4 186.4 504.2 187.7 506.5C188.9 508.6 247.8 470.1 248.5 471.4C249.5 473.1 188.1 509.2 188.9 510.7C190 512.6 246 475 247.2 477.1C248.1 478.7 185.7 514.2 186.8 516C188.1 518.3 245.4 478.9 246.8 481.4C247.9 483.3 184.6 519.4 185.8 521.4C187 523.4 248.2 482.2 249.6 484.6C250.4 486.1 181.6 526.1 182.4 527.5C183.8 529.8 248.9 486.8 249.9 488.5C251 490.5 181.3 530.4 182.3 532C183.5 534.1 244.4 494 245.4 495.6C246.4 497.3 181.3 533.6 182.8 536.1C184.1 538.3 245.5 497.1 246.7 499.2C247.7 500.9 180.7 538.6 182.1 541C183.3 543 244.8 502.9 245.6 504.3C246.8 506.4 177.4 545 178.8 547.3C179.7 548.8 241.4 508.1 242.7 510.4C243.5 511.8 183.2 547.5 184.2 549.2C185.5 551.4 237.7 515.4 239 517.6C240.1 519.4 179.6 554.9 180.5 556.6C181.3 558 228.2 527 229.1 528.5C229.8 529.7 182.1 557.8 183.1 559.5C184.2 561.5 232.6 528.7 233.6 530.3C234.6 532.1 177.1 564.8 178.2 566.7C179 568.1 233.6 532.5 234.6 534.2C235.5 535.8 175 570.8 175.8 572.2C177 574.3 228.4 539.6 229.4 541.3C230.2 542.7 177.6 574.2 178.5 575.7C179.6 577.5 229.5 544.7 230.2 545.9C231.1 547.5 179.5 577.9 180.4 579.4C181.1 580.7 231.3 548.3 232 549.6C233 551.3 174.8 585.9 175.6 587.2C176.3 588.4 216.1 562.2 216.8 563.4C217.7 564.9 177.5 589.9 178.1 590.9C178.7 591.9 223 563.8 223.5 564.7C224.8 566.9 169.6 598.4 170.7 600.3C171.7 602 220.7 569.3 221.6 570.9C222.5 572.5 167.7 604.4 168.5 605.9C169.7 607.9 225.9 570.3 227 572.1C227.8 573.6 166.8 609.2 167.8 610.9C169.1 613.2 223.8 575.6 225 577.8C226.1 579.7 165.7 615.5 166.4 616.7C167.2 618 213.9 587 214.9 588.7C216 590.5 166.9 620 167.5 621.2C168.2 622.5 208.7 596 209.3 597.1C210.1 598.5 166.4 625.3 167.1 626.6C168.1 628.4 212.5 598.1 213.5 599.8C214.2 601 168.4 627.9 169.3 629.5C170 630.8 212.3 602.9 213.1 604.2C213.9 605.5 166.1 634.2 167.1 635.9C167.9 637.3 214.1 607.3 214.7 608.4C215.8 610.3 167.4 638.1 168.4 639.7C169.2 641.1 216.7 609.6 217.6 611.3C218.3 612.5 177.5 637.6 178 638.5C178.6 639.6 213.5 615.9 214.4 617.5C214.9 618.3 180.9 639.8 181.6 641C182.3 642.3 215 620 215.7 621.3C216.1 622 185.3 642.5 185.9 643.5C186.6 644.8 222.9 620.5 223.6 621.7C224 622.5 188.4 645.3 189.1 646.6C189.6 647.5 230.3 621.9 230.7 622.6C231.3 623.7 198 644.9 198.7 646.2C199.2 647.1 235.4 623.1 236.2 624.5C236.8 625.5 201 647.8 201.5 648.6C202.1 649.7 235.1 627.7 235.7 628.8C236.1 629.4 211.4 646.9 211.7 647.5C212.5 648.8 243.7 627.3 244.5 628.6C245.2 629.8 211.1 650.3 211.9 651.6C212.6 652.8 251.1 628 251.5 628.7C252.2 629.9 218.8 651.1 219.5 652.3C219.9 653 254.4 630.5 255.1 631.7C255.5 632.3 225 652.5 225.8 653.8C226.4 654.8 257.3 634.5 257.8 635.3C258.1 635.8 236.2 651 236.6 651.6C236.9 652.1 253.4 641 253.8 641.6C254 641.9 248.5 649.1 248.6 649.3C248.8 649.6 256.7 644.4 256.8 644.6" stroke="currentColor" stroke-width="2" stroke-linecap="round" stroke-linejoin="round"/>
   <path d="M259.1 376.7C259.2 376.8 261.7 375.1 261.8 375.2C261.9 375.3 260.2 380.5 260.3 380.7C260.4 380.9 267.9 376.1 268 376.2C268.1 376.3 265.5 381.9 265.6 382.1C265.7 382.3 274.9 376.5 275 376.7C275.1 376.9 270.1 383.9 270.2 384.1C270.6 384.9 289 372.2 289.4 373C289.6 373.4 275.9 384.7 276.1 385.1C276.3 385.5 287.3 378.1 287.5 378.5" stroke="currentColor" stroke-width="2" stroke-linecap="round" stroke-linejoin="round"/>
   <path d="M253.4 338.4C253.9 339.3 284.5 319.4 285 320.2C285.6 321.3 253.6 341.1 254.3 342.3C254.9 343.3 284.2 323.7 284.7 324.7C285.5 326 252.6 346.7 253 347.4C253.5 348.3 285.9 327.5 286.3 328.2C286.7 328.9 256.4 348.6 257 349.5C257.5 350.4 284.7 332.4 285.2 333.2C285.5 333.8 262.8 350 263.2 350.7C263.6 351.5 282.9 338.2 283.4 339C283.8 339.7 260.9 355.5 261.2 356.1C261.5 356.6 283.6 342.2 284 342.9C284.4 343.6 264.9 357.5 265.3 358.1C265.6 358.7 289.4 343.5 289.7 344C290.2 344.8 264.2 362.8 264.6 363.5C264.9 364.1 290.6 347.6 291 348.3C291.4 349.1 266 365.8 266.6 366.8C266.9 367.4 286.4 354.7 286.7 355.2C287.2 356 267 370.3 267.3 370.8C267.7 371.5 289.3 357.3 289.6 357.9C290 358.6 273.1 370.7 273.4 371.3C273.8 372 293.1 359.3 293.4 359.8C293.9 360.6 271.4 376.2 271.7 376.8C272.1 377.4 290.1 365.2 290.5 365.9" stroke="currentColor" stroke-width="2" stroke-linecap="round" stroke-linejoin="round"/>
   <path d="M95.8 287.6C98.5 292.3 256.4 188.8 259 193.4C261 196.8 90.4 286.2 94.2 292.7C97.8 298.9 260.1 192.5 262.1 195.8C265.7 202.1 90.7 293.1 93.3 297.6C96.3 302.8 256.8 195.2 260.2 201.2C263.9 207.5 95 292.4 98.6 298.6C100.8 302.5 256.8 199.3 260.2 205.3C262.4 209 90.2 302.1 93 307C95.7 311.7 260.7 202.4 264.1 208.2C266.7 212.7 92 306.5 94.6 310.9C96.7 314.5 258.1 210.2 260.8 214.9C264.6 221.4 93 308.2 96.4 314.1C98.5 317.7 260.8 212.3 263.8 217.5C267.2 223.4 89.6 315.2 92.9 320.9C96.7 327.5 258 218.5 261.1 223.8C263.4 227.9 90.8 317.9 94.4 324.2C97.2 329.1 259.3 221.8 262.4 227.2C266.3 234 90.8 324.4 93.8 329.5C97.1 335.1 255.8 228.8 259 234.1C261.9 239.1 91.3 328.3 94.3 333.4C96.9 337.9 262.7 227.6 266.4 234.1C270.2 240.7 95.3 332.6 97.4 336.2C99.9 340.5 264 233.4 266.8 238.4C269.5 243.1 89.7 337.1 93.1 342.8C96.8 349.3 268.6 236.4 270.8 240.2C274.5 246.7 94.3 341.8 96.4 345.4C100.2 351.9 264.7 241.8 267.5 246.6C271.1 252.9 90 344.1 93.9 350.9C96.4 355.2 261 246.9 264.3 252.5C267.6 258.3 88.5 350.7 92.2 357.1C94.9 361.7 268.2 249.9 270.6 254.1C274.2 260.3 88.6 356.7 91.6 362C93.6 365.5 267.6 253 270.8 258.5C273.5 263.1 92.7 359.4 95.5 364.3C98.4 369.3 271.9 253.7 275.7 260.3C278.4 265 92.6 365.1 95 369.3C98.7 375.6 270.2 262.8 272.5 266.8C275.3 271.7 89.1 371.5 91.9 376.3C94.8 381.3 269.7 266 273 271.7C275.8 276.5 92.2 374.3 95 379.2C97.5 383.6 268.6 274.1 270.7 277.7C272.8 281.4 90.6 380.9 93.1 385.2C96.4 390.9 274.4 274.4 277 279C280.6 285.3 97.9 379.4 101.3 385.3C104.3 390.5 278.1 276.9 280.8 281.7C283.6 286.6 105.3 380.7 108 385.5C111.6 391.7 277.6 282.6 279.8 286.3C283.2 292.1 105.4 384.6 108.3 389.6C111.4 394.9 280.4 284.9 282.7 288.9C284.9 292.7 99.4 393.2 102.3 398.2C105.5 403.7 278.8 287.1 282.8 294C285.5 298.6 97.6 396.6 101.7 403.7C105.1 409.5 274.9 296.1 278.2 301.8C281.8 308.1 99.4 401.4 103.2 407.9C106.2 413.2 277.2 301 280 305.8C282.6 310.4 97.9 406.6 101.6 413.1C105.5 419.8 276.1 304 279.7 310.3C283.5 317 100.9 410.2 104.2 415.9C106.7 420.3 282.3 306.3 285.3 311.4C288.6 317.1 102.6 416.3 105 420.5C107.6 424.9 279.6 311.6 283.1 317.6C286 322.6 96.6 420.6 100.6 427.4C103.5 432.5 249 335.2 251.8 340.1C255 345.6 99.7 425.4 102.9 430.9C105.1 434.7 244.5 342.2 247.5 347.4C249.5 350.9 95.7 432.8 98.9 438.3C101.1 442.1 250.5 345.7 252.7 349.5C255.6 354.5 97.2 437.3 100 442.1C101.9 445.4 245.7 351 248.7 356.2C251.9 361.8 97.4 440.8 100.6 446.4C103.8 452 251.4 355.2 253.2 358.3" stroke="currentColor" stroke-width="2" stroke-linecap="round" stroke-linejoin="round"/>
   <path d="M68.1 398.9C68.3 399.3 79.9 391.5 80.2 391.9C80.4 392.2 70.1 402.4 70.3 402.7C70.4 402.9 80.5 396.5 80.6 396.8C80.8 397.1 74.9 404 75.1 404.2C75.2 404.4 76.1 403.4 76.2 403.6C76.3 403.8 74.2 409.6 74.3 409.8C74.4 409.9 78.2 407.4 78.2 407.5C78.3 407.7 71.9 415.1 72.1 415.4C72.2 415.5 76.5 412.7 76.6 412.8C76.7 413 72.8 419 72.9 419.2C72.9 419.3 80.4 414.8 80.4 414.9" stroke="currentColor" stroke-width="2" stroke-linecap="round" stroke-linejoin="round"/>
   <path d="M5.5 435.3C5.6 435.4 9 433.1 9.1 433.2C9.2 433.4 7.6 438.7 7.6 438.9C8.3 440 45.5 415.1 46.4 416.5C47.3 418 1.3 444.6 2.2 446.2C3.4 448.3 61.8 409.9 62.6 411.3C63.7 413.2 -3.3 451.1 -2 453.4C-1 455.2 60.1 414.8 61.3 416.9C62.8 419.4 -2.1 455.5 -0.9 457.5C0.1 459.2 70.4 414.4 71.2 415.9C72.2 417.6 -2 460.2 -0.8 462.3C0.1 463.8 74.3 417 75.1 418.5C76.5 420.9 1.1 464 2.1 465.7C3.5 468 78.7 418.8 79.9 420.8C80.9 422.5 4.3 465.9 5.5 468C7.3 471.1 76.9 424 78.1 426.1C79.7 428.8 0.700001 471.5 2.5 474.5C4 477.2 82.1 425.6 83.4 427.8C84.7 430 1.8 477.5 2.8 479.3C4.4 482.2 85.9 427 87.8 430.2C89.6 433.3 0.9 482.2 2 484C3.5 486.6 93.3 428 94.8 430.5C96.4 433.2 2.6 484.5 4.3 487.4C5.7 489.9 94.4 431.9 95.9 434.5C97 436.5 6.4 485.8 8.4 489.3C10.2 492.5 96.9 433.7 98.8 437.1C100.3 439.7 5.1 492.6 6.3 494.6C7.8 497.3 91.8 441 93.6 444.2C94.7 446 5.9 494.4 7.8 497.8C9.1 500.1 98.6 442 100.1 444.5C101.7 447.3 8.8 498.6 10 500.6C13.4 506.5 248.7 354.6 252.3 360.7C255.1 365.8 1 502.7 4.3 508.5C7.9 514.8 166.3 408.4 169.1 413.4C172.6 419.4 6.7 506.7 9 510.8C11.3 514.8 167.5 412.9 170.3 417.7C172.7 421.9 2.2 512.6 4.9 517.3C7.5 521.8 165.3 419 167.8 423.2C170.5 427.9 2 515.7 5.6 522C9.1 528 161.9 425.9 164.5 430.3C166.5 433.8 3.1 520.2 6.3 525.8C8.8 530.2 158.4 431.4 161.3 436.3C163.7 440.5 11.2 522.7 13.1 525.9C15.9 530.7 150.5 442.3 152.4 445.5C154.9 449.9 6.5 528.1 9.4 533.1C11.9 537.4 152.3 446.7 154 449.6C156 453.1 10 531.9 12.4 536.1C14.4 539.6 148.5 452.1 150.8 456.2C153.3 460.5 12.9 535.4 14.9 538.9C16.8 542.3 148.9 457.2 150.7 460.5C152.6 463.8 12.9 538.7 15.5 543.2C17.2 546.2 151.8 458.4 154.4 463C157.3 468 12.7 544.9 14.6 548.2C17.2 552.8 155.2 461.8 157.5 465.7C160 470.1 16.6 546 18.9 549.9C20.8 553.2 155.2 467.6 156.8 470.3C159.6 475.2 23.2 546.9 25.6 551.1C27.6 554.6 156.7 471.8 158.3 474.5C160.1 477.7 29.4 548.1 31.9 552.5C34.2 556.4 156.9 476.1 158.7 479.3C160.8 482.9 32.2 553.8 33.7 556.4C36.5 561.2 150 483.8 152.4 487.9C154.6 491.7 33.9 556.4 36.1 560.2C38.4 564.3 154.8 488 156.4 490.7C158 493.5 43.8 555.5 46.1 559.5C47.5 561.9 143.5 497.9 145.8 501.9C147.6 505 47.5 559.8 49.2 562.6C50.8 565.4 141.4 506.7 142.5 508.7C144.1 511.5 47.7 564.2 49.6 567.5C50.8 569.6 135.7 513.6 137.5 516.8C139.2 519.7 53.8 566.3 55 568.5C56.8 571.6 140.4 515.4 142.1 518.2C143.9 521.3 61.3 567 62.3 568.8C63.7 571.3 141.5 520.7 142.5 522.5C143.9 524.9 60.5 571.2 62 573.8C63.7 576.7 135.3 527.5 137.1 530.5" stroke="currentColor" stroke-width="2" stroke-linecap="round" stroke-linejoin="round"/>
   <path d="M81.5 372.3C81.7 372.7 91 366.3 91.2 366.7C91.4 367 78.1 378.3 78.3 378.7C78.5 379.1 86.7 373.5 86.8 373.8C87 374.2 76.6 383.1 76.9 383.6C77 383.8 91.4 374.7 91.6 375.1C91.8 375.5 77.9 387.1 78.2 387.5C78.3 387.7 86.4 382.5 86.5 382.7C86.7 383 82.7 389.6 82.9 389.8C83 389.9 87.8 386.8 87.8 386.9C87.9 387 83.5 393.3 83.6 393.5L87.2 391.4" stroke="currentColor" stroke-width="2" stroke-linecap="round" stroke-linejoin="round"/>
   <path d="M85.8 120.6C85.9 120.7 89.3 118.5 89.4 118.5C89.5 118.7 86.9 124.1 87 124.2C88.6 127 211.8 46 214.5 50.6C216.7 54.3 83.8 127 85.6 130.2C87.4 133.4 213.6 50.6 216.1 54.9C219.2 60.3 78.7 133 81.2 137.2C83.6 141.8 210.9 57 213.2 61C216 65.8 79.4 136.2 82.2 140.9C83.9 143.8 211.5 61.1 213.7 65C216.8 70.4 75.7 144 78 148C79.6 150.8 213.3 63.8 215.9 68.4C217.8 71.6 76.6 148 79 152.1C80.6 154.9 213.4 70.6 215.1 73.5C217.5 77.6 77.9 153.4 79.7 156.5C81.3 159.3 211.9 76.3 213.6 79.2C215.7 82.8 74.8 159.7 76.5 162.6C79.5 167.7 211 81 212.8 84C215.4 88.6 72.2 163.9 75 168.6C77.8 173.4 217.9 81.6 219.8 85C223.3 91 67.5 170.9 70.3 175.7C73 180.4 220.8 81.4 224 86.9C225.9 90.1 67 177.7 69 181.1C71.6 185.9 217.4 89.6 220 94C223.2 99.5 69.7 180.2 71.9 184.1C74.9 189.3 220.6 91.6 223.5 96.6C226.9 102.5 66.8 187.5 68.7 190.8C70.7 194.2 228.4 93.8 230.5 97.4C233 101.8 61.2 190.5 65 197.1C67.3 201.1 226.4 99.1 228.5 102.7C231.1 107.2 66 194.6 68.6 199.2C70.7 202.8 228.2 101.4 230.6 105.6C233.2 110.1 58.6 201.3 62.2 207.7C65.7 213.7 231.2 103.9 233.9 108.6C236.7 113.4 62.7 206.4 65 210.3C67.2 214.2 234.4 107.2 236.7 111.2C239.2 115.6 58.2 210.9 61.6 216.9C63.9 220.8 233.2 110.3 236.5 115.9C239.6 121.3 60.1 215.8 63.2 221.2C66.4 226.8 237.1 114.7 239.8 119.3C243.7 126 56.5 224.4 58.9 228.5C62.6 234.9 244.4 114.9 247.2 119.8C251.2 126.7 53.7 225.7 58.1 233.3C61.9 239.8 241.1 118 245.3 125.2C248.1 130.1 51.3 232.2 55.2 239C58.5 244.8 242.2 122.6 245.8 128.9C248.1 132.9 52.4 237.1 55.7 242.9C59.4 249.3 245.4 124 249.5 131C252.8 136.7 48.4 245.6 50.8 249.9C55 257.1 246 131.2 248.6 135.7C251.7 141.2 48.1 245.6 52.4 253.1C56 259.3 248.3 133.2 251.2 138.3C254.2 143.6 45.1 254.9 48.3 260.5C52.3 267.5 254.8 134.5 257.7 139.6C261 145.3 48.3 254.1 53 262.3C57.7 270.5 251.8 138.2 255.8 145.2C259.1 151 48.2 262.2 51.4 267.8C55.8 275.4 256 142.1 259.3 147.8C263.2 154.5 47.8 264.5 52.1 272C56.7 279.9 252.2 150.5 254.8 155C257.8 160.2 48.2 268.7 52.7 276.6C56.9 283.9 254.3 150.6 258.4 157.8C262.8 165.5 48.9 275.8 52.3 281.6C56.5 288.9 253.7 155.8 257.9 162.9C262 170 42.3 281.6 46.6 289.1C49 293.3 254.5 162.9 257.2 167.5C259.7 171.8 44.9 288.6 47.7 293.3C52 300.7 257.7 161.2 262.4 169.3C265.7 175.1 47.3 287.4 51.9 295.5C55 300.8 252.2 169.4 256.8 177.2C260.7 184 43.3 295.3 47.6 302.6C52.1 310.5 260.8 172.3 263.9 177.7C266.7 182.5 46.5 300.4 49.7 305.9C53.5 312.6 262.2 177 264.9 181.7C268.6 188.2 47.5 301.3 52 309.1C55.3 314.9 258.2 183.9 260.8 188.5C263.6 193.3 48.2 307.5 51.6 313.5C52.7 315.4 94.6 286.8 95.4 288.2C96.1 289.4 46 320.3 46.6 321.3C47.4 322.7 91.5 293.4 92.4 294.9C93 295.9 46.3 324.6 46.9 325.7C48 327.5 90.4 298.2 91.4 300C92.2 301.3 48.6 327.6 49.4 329C50.3 330.6 89.4 303.7 90.3 305.4C91 306.6 45.3 334.1 45.9 335.2C46.6 336.3 89.8 308.2 90.5 309.5C91.2 310.6 48 337.9 48.6 338.8C49.5 340.4 89.6 313.9 90.1 314.8C90.8 316 47.3 342.3 48 343.5C48.6 344.6 87.5 318.6 88.4 320.2C89.3 321.8 49.9 345.9 50.6 347.2C51.4 348.6 88.4 324.1 88.9 325.1C89.6 326.3 47.8 351.7 48.4 352.8C49.3 354.3 88 328 88.8 329.5C89.6 330.9 54.5 352.6 55.1 353.6C55.9 355 84.5 335.6 85 336.4C85.6 337.4 52 359 52.6 360C53.2 361.1 83.6 341.1 84 341.9C84.6 342.9 48.3 365.7 48.8 366.5C49.5 367.7 88.8 342 89.4 343C90.1 344.2 51.1 367.6 51.9 369C52.5 370 84.5 348.3 85.3 349.7C85.8 350.5 47.5 374.4 48.4 376C49.2 377.3 86.3 353 86.8 353.8C87.3 354.7 51 376.8 51.7 378.1C52.2 379 86 357.2 86.4 358C87 359.1 49.6 383.4 50.1 384.2C50.7 385.3 90.8 359.5 91.3 360.4C91.9 361.4 50.1 387.5 50.7 388.5C51.4 389.7 87.3 365.5 88.1 366.9C88.5 367.6 55.1 389.5 55.8 390.6C56.1 391.1 78.1 377 78.4 377.5C79 378 56 394.4 56.4 394.9C56.8 395.6 75.5 383.3 75.7 383.7C76.1 384.3 57 398 57.3 398.6C57.6 399.1 81.8 383.3 82.3 384.2C82.7 384.9 58.2 401.8 58.7 402.7C59.1 403.5 75.6 392.3 75.9 392.8C76.3 393.5 57.3 407.4 57.7 408C57.8 408.2 65.9 403 66 403.2" stroke="currentColor" stroke-width="2" stroke-linecap="round" stroke-linejoin="round"/>
   <path d="M159.3 5.19999L161.1 4.09999C161.3 4.49999 151.3 13.3 151.6 13.7C151.8 14.1 166.9 4.39999 167.1 4.79999C167.4 5.29999 150.3 18.8 150.7 19.4C151.1 20.2 177.5 2.89999 177.9 3.69999C178.5 4.79999 147.3 23.9 148 25.1C148.6 26.2 192.1 -2.40001 193 -0.900007C193.9 0.699993 146.9 28 147.9 29.7C149 31.5 193.9 1.09999 194.8 2.59999C196 4.69999 140.7 35.8 141.7 37.5C142.9 39.5 193.2 5.79999 194 7.29999C194.9 8.89999 140.7 40.2 141.8 42C142.9 44 197.4 7.79999 198.3 9.39999C199.4 11.3 142.6 43.9 143.6 45.5C144.6 47.2 196.1 12.3 197.3 14.5C198 15.7 141.8 50 142.6 51.3C143.9 53.6 200.2 15.8 201.2 17.5C202.4 19.7 141.2 53.4 142.6 55.8C143.8 57.8 201.4 19.7 202.4 21.3C203.6 23.3 140.7 59.1 141.7 60.8C142.5 62.2 200.6 24 201.8 26.1C202.7 27.7 139.7 63.6 141.1 65.9C141.9 67.4 203.5 26.5 204.9 29C205.8 30.6 141.4 67.3 142.5 69.1C143.8 71.3 209.4 26.9 211 29.6C212.6 32.4 127.1 80.8 128.2 82.6C130 85.7 211.4 31.6 212.7 33.8C214.2 36.4 121.9 85.6 123.9 89.2C125.7 92.3 212.2 33.6 214.2 37C215.6 39.5 121.1 91.6 122.8 94.6C124.5 97.5 212.7 38.1 214.7 41.5C216.4 44.5 113.5 101 114.9 103.5C116.3 106 212.1 42.4 214.3 46.1" stroke="currentColor" stroke-width="2" stroke-linecap="round" stroke-linejoin="round"/>
</svg>