<svg viewBox="0 0 292 695" fill="none" xmlns="http://www.w3.org/2000/svg">
   <path d="M286.3 346.5V338L277.2 277.8L270.4 274.1L272.1 260.9L265.3 252.1L269.7 242.6L260.2 229.8L265.6 217.3L260.2 202.1L261.9 177.8L259.5 176.1L255.8 142L241 123.4L246.1 121.7L230.9 108.9L227.9 98.1L215 81.8L216.7 45L191.1 0L157.5 4.7L141.3 40.9V69.6L130.4 77.7L113.5 107.4L87.1 118.2L49.2 264.2L47.5 353.9L52.1 352.9L50.1 388.6L56.2 394.4L54 412.5L6.8 433L0 454.3L11.8 542.5L65.5 573.6L82.4 561.4L81.4 590.5L89.2 599.3L87.2 606.1L89.6 643.6L78.1 680.8L99 695L123 683.2L125 629.1V607.1L135.5 583.4L139.9 527.6V508L156.1 491.8L152 448.5L173.3 406.6L188.2 446.1L197.3 451.8L181.1 539.3L179.7 564.3L177 566.3V594L171 597L164.6 636.9L225.1 653.1L259.2 646.3L252.8 630.1L238.3 627.4L218 618.7L211.2 594.6L211.5 588.2L226.4 578.4L219.3 560.1L231.1 548.6V522.9L243.3 511.4L250.1 466.8L245.4 437.4C245.4 437.4 249.1 425.2 249.5 423.5C249.9 421.8 242 386 242 386L250.1 384L250.4 338.7L255.5 350.2L259.6 350.5L266.7 360.6L272.8 378.5L265 372.4L259.6 374.8L261.3 381.2L276.2 385.9L286.3 381.5L292 361.6L286.3 346.5ZM58.9 413.4C59.2 412.6 65 399.2 65 399.2L73.7 404.4L74.3 419.2L58.9 413.4ZM99 447.9L91.9 431.7L77.1 421.7L78.8 383.9L75.1 382.8L79 372.3L80.6 385.9L85.7 392.1L90.1 374.9L85.7 339.4L96.5 285.7L93.3 384H105.8L99 447.9Z" fill="currentColor"/>
</svg>